<svg id="svg" version="1.1" xmlns="http://www.w3.org/2000/svg" xmlns:xlink="http://www.w3.org/1999/xlink" width="400" height="200" viewBox="0, 100, 400,200"><g id="svgg"><path id="path0" d="M280.851 140.426 L 280.851 144.681 276.596 144.681 L 272.340 144.681 272.340 195.745 L 272.340 246.809 280.851 246.809 L 289.362 246.809 289.362 225.532 L 289.362 204.255 297.872 204.255 L 306.383 204.255 306.383 195.745 L 306.383 187.234 297.872 187.234 L 289.362 187.234 289.362 174.468 L 289.362 161.702 293.617 161.702 L 297.872 161.702 297.872 157.447 L 297.872 153.191 306.383 153.191 L 314.894 153.191 314.894 144.681 L 314.894 136.170 297.872 136.170 L 280.851 136.170 280.851 140.426 M331.915 140.426 L 331.915 144.681 327.660 144.681 L 323.404 144.681 323.404 195.745 L 323.404 246.809 331.915 246.809 L 340.426 246.809 340.426 225.532 L 340.426 204.255 348.936 204.255 L 357.447 204.255 357.447 195.745 L 357.447 187.234 348.936 187.234 L 340.426 187.234 340.426 174.468 L 340.426 161.702 344.681 161.702 L 348.936 161.702 348.936 157.447 L 348.936 153.191 357.447 153.191 L 365.957 153.191 365.957 144.681 L 365.957 136.170 348.936 136.170 L 331.915 136.170 331.915 140.426 " stroke="none" fill="#3c6404" fill-rule="evenodd"></path><path id="path1" d="M85.106 157.447 L 85.106 178.723 80.851 178.723 L 76.596 178.723 76.596 174.468 L 76.596 170.213 59.574 170.213 L 42.553 170.213 42.553 174.468 L 42.553 178.723 38.298 178.723 L 34.043 178.723 34.043 208.511 L 34.043 238.298 38.298 238.298 L 42.553 238.298 42.553 242.553 L 42.553 246.809 59.574 246.809 L 76.596 246.809 76.596 242.553 L 76.596 238.298 80.851 238.298 L 85.106 238.298 85.106 242.553 L 85.106 246.809 93.617 246.809 L 102.128 246.809 102.128 191.489 L 102.128 136.170 93.617 136.170 L 85.106 136.170 85.106 157.447 M246.809 191.489 L 246.809 246.809 255.319 246.809 L 263.830 246.809 263.830 191.489 L 263.830 136.170 255.319 136.170 L 246.809 136.170 246.809 191.489 M110.638 204.255 L 110.638 238.298 114.894 238.298 L 119.149 238.298 119.149 242.553 L 119.149 246.809 136.170 246.809 L 153.191 246.809 153.191 242.553 L 153.191 238.298 157.447 238.298 L 161.702 238.298 161.702 204.255 L 161.702 170.213 153.191 170.213 L 144.681 170.213 144.681 200.000 L 144.681 229.787 136.170 229.787 L 127.660 229.787 127.660 200.000 L 127.660 170.213 119.149 170.213 L 110.638 170.213 110.638 204.255 M170.213 225.532 L 170.213 280.851 178.723 280.851 L 187.234 280.851 187.234 259.574 L 187.234 238.298 191.489 238.298 L 195.745 238.298 195.745 242.553 L 195.745 246.809 212.766 246.809 L 229.787 246.809 229.787 242.553 L 229.787 238.298 234.043 238.298 L 238.298 238.298 238.298 208.511 L 238.298 178.723 234.043 178.723 L 229.787 178.723 229.787 174.468 L 229.787 170.213 212.766 170.213 L 195.745 170.213 195.745 174.468 L 195.745 178.723 191.489 178.723 L 187.234 178.723 187.234 174.468 L 187.234 170.213 178.723 170.213 L 170.213 170.213 170.213 225.532 M68.085 191.489 L 68.085 195.745 76.596 195.745 L 85.106 195.745 85.106 208.511 L 85.106 221.277 76.596 221.277 L 68.085 221.277 68.085 225.532 L 68.085 229.787 59.574 229.787 L 51.064 229.787 51.064 208.511 L 51.064 187.234 59.574 187.234 L 68.085 187.234 68.085 191.489 M221.277 208.511 L 221.277 229.787 212.766 229.787 L 204.255 229.787 204.255 225.532 L 204.255 221.277 195.745 221.277 L 187.234 221.277 187.234 208.511 L 187.234 195.745 195.745 195.745 L 204.255 195.745 204.255 191.489 L 204.255 187.234 212.766 187.234 L 221.277 187.234 221.277 208.511 " stroke="none" fill="#040404" fill-rule="evenodd"></path><path id="path2" d="" stroke="none" fill="#405004" fill-rule="evenodd"></path><path id="path3" d="" stroke="none" fill="#241c04" fill-rule="evenodd"></path><path id="path4" d="" stroke="none" fill="#042004" fill-rule="evenodd"></path></g></svg>